<svg width="76" height="35" viewBox="0 0 76 35" fill="none" xmlns="http://www.w3.org/2000/svg">
<path d="M0.92907 23.8623C10.9531 32.9402 22.4159 32.2029 34.1849 29.0642C46.3081 25.8583 55.7815 18.8081 62.9592 7.84631C55.942 9.54608 49.6827 13.3039 41.423 11.8802C42.9181 10.834 43.5621 10.0624 44.2705 9.92786C51.7792 8.58642 58.7373 5.68395 65.3481 2.14167C66.2007 1.72566 67.1247 1.2396 68.046 1.0364C70.5269 0.424041 72.0742 1.28764 72.6152 3.83859C72.7511 4.40562 72.7443 5.11268 72.8088 5.74973C72.7498 11.8306 72.7622 17.8414 75.3228 23.5941C69.7582 21.3479 68.6021 16.5989 68.23 11.221C64.1606 15.2122 60.7282 19.1389 56.6657 22.4231C44.7635 31.9954 31.2139 36.4603 15.893 33.9781C11.9389 33.3741 8.06988 31.2858 4.41093 29.4118C1.73503 28.2544 1.4618 27.2617 0.92907 23.8623Z" fill="white"/>
</svg>
